<svg width="72" height="90" viewBox="0 0 72 90" fill="none" xmlns="http://www.w3.org/2000/svg">
<path d="M45 90C37.8985 90 30.8979 88.3193 24.5704 85.0953C18.243 81.8713 12.7684 77.1955 8.59423 71.4503C4.42009 65.7051 1.66493 59.0536 0.554021 52.0395C-0.55689 45.0255 0.00798631 37.8481 2.20247 31.0942C4.39694 24.3403 8.15872 18.2017 13.1802 13.1802C18.2017 8.15868 24.3404 4.39691 31.0943 2.20244C37.8482 0.00797515 45.0256 -0.55689 52.0396 0.554032C59.0536 1.66495 65.7052 4.42012 71.4504 8.59427L70.1279 10.4146C64.6699 6.44911 58.351 3.83171 51.6876 2.77633C45.0243 1.72095 38.2058 2.25758 31.7896 4.34232C25.3734 6.42707 19.5416 10.0007 14.7712 14.7712C10.0008 19.5416 6.4271 25.3733 4.34234 31.7895C2.25759 38.2057 1.72095 45.0242 2.77632 51.6876C3.83169 58.3509 6.44908 64.6699 10.4145 70.1278C14.3799 75.5858 19.5808 80.0277 25.5919 83.0905C31.603 86.1533 38.2536 87.75 45 87.75L45 90Z" fill="#EB1537"/>
</svg>
