<svg width="12" height="10" viewBox="0 0 12 10" fill="none" xmlns="http://www.w3.org/2000/svg">
<path d="M11.7866 4.76683C10.6083 2.031 8.39165 0.333496 5.99998 0.333496C3.60831 0.333496 1.39164 2.031 0.213311 4.76683C0.181191 4.84043 0.164612 4.91986 0.164612 5.00016C0.164612 5.08046 0.181191 5.1599 0.213311 5.2335C1.39164 7.96933 3.60831 9.66683 5.99998 9.66683C8.39165 9.66683 10.6083 7.96933 11.7866 5.2335C11.8188 5.1599 11.8353 5.08046 11.8353 5.00016C11.8353 4.91986 11.8188 4.84043 11.7866 4.76683ZM5.99998 8.50016C4.15081 8.50016 2.40081 7.16433 1.39164 5.00016C2.40081 2.836 4.15081 1.50016 5.99998 1.50016C7.84914 1.50016 9.59914 2.836 10.6083 5.00016C9.59914 7.16433 7.84914 8.50016 5.99998 8.50016ZM5.99998 2.66683C5.53849 2.66683 5.08736 2.80368 4.70365 3.06007C4.31993 3.31646 4.02086 3.68087 3.84426 4.10723C3.66765 4.5336 3.62145 5.00275 3.71148 5.45537C3.80151 5.908 4.02374 6.32376 4.35006 6.65008C4.67638 6.9764 5.09215 7.19863 5.54477 7.28866C5.99739 7.37869 6.46655 7.33249 6.89291 7.15588C7.31927 6.97928 7.68368 6.68021 7.94007 6.29649C8.19646 5.91278 8.33331 5.46165 8.33331 5.00016C8.33331 4.38132 8.08748 3.78783 7.64989 3.35025C7.21231 2.91266 6.61882 2.66683 5.99998 2.66683ZM5.99998 6.16683C5.76923 6.16683 5.54367 6.0984 5.35181 5.97021C5.15996 5.84201 5.01042 5.65981 4.92212 5.44663C4.83382 5.23345 4.81071 4.99887 4.85573 4.77256C4.90074 4.54625 5.01186 4.33837 5.17502 4.1752C5.33818 4.01204 5.54606 3.90093 5.77237 3.85591C5.99868 3.8109 6.23326 3.834 6.44644 3.9223C6.65962 4.0106 6.84183 4.16014 6.97003 4.352C7.09822 4.54385 7.16665 4.76942 7.16665 5.00016C7.16665 5.30958 7.04373 5.60633 6.82494 5.82512C6.60614 6.04391 6.3094 6.16683 5.99998 6.16683Z" fill="black"/>
</svg>
